<svg width="290" height="93" viewBox="0 0 290 93" fill="none" xmlns="http://www.w3.org/2000/svg">
<path d="M93.1104 77.0882V24.17H104.137L127.708 55.667V24.17H139.613V77.0882H129.865L105.016 44.7978V77.0882H93.1104Z" fill="black"/>
<path d="M163.892 78.2783C160.589 78.2783 157.606 77.8816 154.943 77.0882C152.279 76.242 150.149 74.8403 148.551 72.8833C146.952 70.8734 146.153 68.0966 146.153 64.5529C146.153 60.8504 147.325 57.8885 149.669 55.667C152.013 53.3927 155.662 52.2555 160.616 52.2555C162.693 52.2555 164.691 52.52 166.608 53.0489C168.579 53.5778 170.257 54.2125 171.642 54.953V52.4142C171.642 49.9812 170.843 48.2357 169.245 47.1779C167.7 46.0672 165.516 45.5118 162.693 45.5118C160.296 45.5118 157.899 45.9349 155.502 46.7812C153.105 47.5746 151.214 48.5531 149.829 49.7167V39.2441C151.107 38.3979 153.211 37.6045 156.141 36.864C159.124 36.1235 162.4 35.7533 165.969 35.7533C167.514 35.7533 169.272 35.9384 171.243 36.3086C173.267 36.626 175.211 37.2871 177.075 38.2921C178.94 39.2441 180.458 40.6458 181.63 42.497C182.855 44.3482 183.468 46.7812 183.468 49.7961L183.388 68.7578C183.334 72.1957 181.603 74.6552 178.194 76.1362C174.785 77.5642 170.017 78.2783 163.892 78.2783ZM157.979 64.7909C157.979 66.3776 158.618 67.647 159.897 68.5991C161.228 69.4982 162.693 69.9478 164.291 69.9478C167.008 69.9478 168.899 69.7627 169.964 69.3925C171.083 69.0222 171.642 68.2817 171.642 67.171V60.9827C169.724 60.348 167.674 60.0306 165.49 60.0306C160.482 60.0306 157.979 61.6174 157.979 64.7909Z" fill="black"/>
<path d="M193.743 77.0882V45.9878H187.83V36.9433H193.823V35.9913C193.823 31.6542 194.515 28.322 195.9 25.9947C197.338 23.6675 199.229 22.0807 201.573 21.2345C203.917 20.3353 206.474 19.8857 209.244 19.8857C210.096 19.8857 211.028 19.9651 212.04 20.1238C213.052 20.2824 213.878 20.4676 214.517 20.6791V31.0724C213.985 30.5963 213.425 30.1996 212.839 29.8823C212.307 29.512 211.534 29.3269 210.522 29.3269C209.137 29.3269 207.992 29.6972 207.086 30.4377C206.181 31.1252 205.728 32.5004 205.728 34.5632V36.9433H214.517V45.9878H205.648V77.0882H193.743Z" fill="black"/>
<path d="M233.898 78.675C229.21 78.675 225.721 77.5907 223.431 75.4221C221.14 73.2007 219.995 70.0801 219.995 66.0603V45.9878H214.082V36.9433H219.995V25.9154H232.46V36.9433H241.329V45.9878H232.46V64.5529C232.46 65.928 232.752 66.9594 233.338 67.647C233.924 68.2817 234.91 68.5991 236.295 68.5991C238.159 68.5991 239.837 68.0437 241.329 66.933V77.0089C240.157 77.6436 238.932 78.0667 237.653 78.2783C236.375 78.5427 235.123 78.675 233.898 78.675Z" fill="black"/>
<path d="M258.599 92.6384C254.952 92.886 253.899 93 251.408 93V83.0828C253.386 82.9682 253.358 82.8985 256.12 82.5585C258.882 82.2185 258.998 82.0336 260.117 81.1344C261.235 80.2882 262.114 78.7808 262.754 76.6122L246.533 36.9433H260.117L268.746 63.2835L277.216 36.9433H290L274.1 77.7229C271.916 83.2766 269.492 87.1377 266.829 89.3062C264.218 91.5277 261.475 92.6384 258.599 92.6384Z" fill="black"/>
<path d="M58.6789 24.251V76.1479H50.4408L28.8235 45.6409V76.1479H18.913V24.251H27.2131L48.7684 54.7579V24.251H58.6789Z" fill="url(#paint0_linear)"/>
<path fill-rule="evenodd" clip-rule="evenodd" d="M38.796 76.6329C53.5267 76.6329 65.4682 64.6897 65.4682 49.9569C65.4682 35.2242 53.5267 23.281 38.796 23.281C24.0653 23.281 12.1237 35.2242 12.1237 49.9569C12.1237 64.6897 24.0653 76.6329 38.796 76.6329ZM38.796 88.7584C60.2224 88.7584 77.592 71.3864 77.592 49.9569C77.592 28.5275 60.2224 11.1555 38.796 11.1555C17.3696 11.1555 0 28.5275 0 49.9569C0 71.3864 17.3696 88.7584 38.796 88.7584Z" fill="url(#paint1_linear)"/>
<path d="M16.2953 0.759967C16.2953 0.759967 16.8043 -0.274433 15.7015 0.0703674C14.5139 0.415167 6.20035 4.12177 5.0127 12.6556C3.82505 21.1894 9.33913 26.7924 14.429 27.1372C19.519 27.482 22.4032 24.034 21.7246 20.0688C21.3004 17.4828 17.6527 15.5002 16.2953 11.2764C14.938 7.05257 16.2953 0.759967 16.2953 0.759967Z" fill="#DE3C8E"/>
<path d="M61.2966 0.759967C61.2966 0.759967 60.7876 -0.274433 61.8904 0.0703674C63.0781 0.415167 71.3916 4.12177 72.5793 12.6556C73.7669 21.1894 68.2528 26.7924 63.1629 27.1372C58.073 27.482 55.1887 24.034 55.8674 20.0688C56.2915 17.4828 59.9393 15.5002 61.2966 11.2764C62.6539 7.05257 61.2966 0.759967 61.2966 0.759967Z" fill="#DE3C81"/>
<defs>
<linearGradient id="paint0_linear" x1="18.913" y1="76.1479" x2="69.0233" y2="37.751" gradientUnits="userSpaceOnUse">
<stop stop-color="#DE3CB1"/>
<stop offset="1" stop-color="#DE3C76"/>
</linearGradient>
<linearGradient id="paint1_linear" x1="0" y1="88.7584" x2="77.6028" y2="11.1664" gradientUnits="userSpaceOnUse">
<stop stop-color="#DE3CB1"/>
<stop offset="1" stop-color="#DE3C76"/>
</linearGradient>
</defs>
</svg>
